<?xml version="1.0" encoding="utf-8"?>
<!-- Generator: Adobe Illustrator 25.2.0, SVG Export Plug-In . SVG Version: 6.00 Build 0)  -->
<svg version="1.1" id="Layer_1" xmlns="http://www.w3.org/2000/svg" xmlns:xlink="http://www.w3.org/1999/xlink" x="0px" y="0px"
	 viewBox="0 0 500 81" style="enable-background:new 0 0 500 81;" xml:space="preserve">
<style type="text/css">
	.st0{fill:#25d366;}
</style>
<g>
	<path class="st0" d="M17.1,20.9c0,13.5,0,26.5,0,39.6c-4.1,0-8.2,0-12.4,0c0-18.5,0-37,0-55.6c0.5,0,1-0.1,1.5-0.1
		c5.3,0,10.6,0,15.9,0c1.2,0,1.7,0.3,2.1,1.4c3.8,10.8,7.6,21.6,11.5,32.4c0.2,0.6,0.5,1.2,0.9,2.3c0.3-0.9,0.6-1.4,0.7-1.9
		C41.1,28,44.8,17.1,48.4,6.2c0.4-1.1,0.9-1.5,2.1-1.5c5.4,0.1,10.8,0,16.2,0c0.5,0,1,0,1.6,0c0,18.6,0,37.1,0,55.7
		c-4.2,0-8.5,0-12.8,0c0-13,0-26.1,0-39.2c-0.1,0-0.1-0.1-0.2-0.1c-0.2,0.5-0.4,0.9-0.6,1.4C50.3,34.7,45.8,46.9,41.4,59
		c-0.5,1.3-1.1,1.6-2.3,1.6c-2.1-0.1-4.2-0.1-6.2,0c-1.3,0.1-1.7-0.6-2-1.6C26.5,47,22.2,35,18,23C17.8,22.4,17.5,21.9,17.1,20.9z"
		/>
	<path class="st0" d="M156.1,25.5c0-8.3,0-16.3,0-24.4c4.3,0,8.5,0,12.7,0c0,19.7,0,39.5,0,59.4c-3.8,0-7.7,0-11.7,0
		c0-1.6,0-3.1,0-4.8c-0.3,0.1-0.4,0.1-0.5,0.2c-4.5,6.8-17.6,8.4-25.1,0.8c-4.7-4.7-6.4-10.6-6.1-17.1c0.2-5.6,2.1-10.5,6.2-14.6
		c5.9-5.9,17.2-7.1,23.7-0.1C155.5,25,155.6,25.1,156.1,25.5z M147,51c5.3,0,9.6-4.5,9.6-10.1c0-5.6-4.2-10.1-9.5-10.2
		c-5.4,0-9.4,4.3-9.4,10.1C137.7,46.6,141.7,50.9,147,51z"/>
	<path class="st0" d="M306.9,56.2c0,7.9,0,15.5,0,23.2c-4.4,0-8.5,0-12.8,0c0-19.4,0-38.6,0-58c4,0,8,0,12.2,0c0,1.5,0,3,0,4.7
		c0.5-0.4,0.7-0.5,0.8-0.7c7.3-8.3,21.1-6.5,27,2.7c5.7,8.8,4.5,21.7-2.8,28.7c-5.9,5.7-15.7,6.4-21.9,1.6
		C308.6,57.9,307.9,57.2,306.9,56.2z M315.8,51c5.4,0.1,9.4-4.1,9.5-10c0.1-5.9-3.8-10.2-9.2-10.3c-5.2,0-9.5,4.3-9.6,9.8
		C306.4,46.3,310.5,50.9,315.8,51z"/>
	<path class="st0" d="M286.6,10.2c-2.9,3-5.6,5.9-8.5,8.9c-3.2-3.4-7-5.2-11.6-4.6c-1.6,0.2-3.3,0.8-4.5,1.8
		c-2.6,2.1-2.3,5.9,0.6,7.6c1.5,0.9,3.2,1.5,4.8,2.1c3,1.1,6,2,8.9,3.3c5.7,2.6,9.7,6.6,9.9,13.3c0.2,7.4-2.7,13.2-9.4,16.6
		c-6.2,3.2-12.9,3.3-19.6,1.8c-4.4-1-8.5-2.8-11.9-5.8c-0.4-0.4-0.9-0.8-1.4-1.2c3.1-2.9,6.1-5.7,9.2-8.5c2.1,2.3,5.1,4.2,8.7,5.1
		c2.5,0.6,5.1,0.6,7.5-0.5c3.7-1.6,4.6-6.5,1.4-9.1c-1.5-1.2-3.5-2-5.3-2.8c-2.7-1.1-5.6-1.8-8.4-2.9c-6.3-2.6-10.2-7-10.3-14.1
		c-0.1-7,3.1-12,9.2-15.2c9.2-4.7,22.4-3.1,30.2,3.7C286.3,9.8,286.4,9.9,286.6,10.2z"/>
	<path class="st0" d="M343.8,78.8c0.5-3.8,1-7.3,1.4-10.7c1.7,0.1,3.3,0.4,4.9,0.4c2,0,3.6-0.8,4.5-2.5c0.9-1.8,1.7-3.7,2.4-5.5
		c0.2-0.4-0.1-1.1-0.3-1.6c-5-12-10.1-23.9-15.2-35.8c-0.2-0.5-0.4-0.9-0.6-1.6c3.2,0,6.3,0,9.3,0c1.6,0,3.6-0.5,4.7,0.3
		c1.1,0.8,1.3,2.8,1.8,4.3c2.2,6.4,4.5,12.8,6.7,19.3c0.1,0.4,0.3,0.8,0.6,1.5c0.3-0.9,0.5-1.4,0.7-2c2.3-7.4,4.6-14.8,6.8-22.2
		c0.3-1,0.8-1.4,1.8-1.3c4,0.1,8,0,12.2,0c-0.6,1.5-1.1,2.9-1.6,4.3c-5.2,13.3-10.4,26.7-15.5,40c-0.5,1.4-1.2,2.8-1.8,4.1
		c-3.4,7-8.8,10.2-16.6,9.7C348.1,79.4,346.1,79.1,343.8,78.8z"/>
	<path class="st0" d="M493.1,38.8c0,13.2-7.7,21.6-19,22.8c-6,0.6-11.5-0.6-16.4-4.1c-6.8-4.9-9.6-13.6-7.5-22.3
		c1.9-7.7,8.4-13.6,16.5-14.8c5.5-0.9,10.9-0.4,15.9,2.3C489.7,26.6,493,32.7,493.1,38.8z M462,40.7c0.2,1,0.2,2.1,0.5,3.1
		c1.6,6.9,9.8,9.6,15.1,4.9c2.1-1.9,2.9-4.4,3.2-7.1c0.5-4.7-2.7-9.6-7.1-10.6C467.3,29.5,462.1,33.9,462,40.7z"/>
	<path class="st0" d="M118.8,44.5c-9.8,0-19.2,0-28.7,0c0.5,3.6,2.7,5.6,5.7,6.8c4.3,1.7,8.3,0.6,12.5-3.3c2.9,1.8,5.8,3.7,8.8,5.6
		c-2.2,3.1-4.9,5.3-8.3,6.6c-6.9,2.6-13.8,2.4-20.4-0.8c-5.3-2.6-8.7-6.9-10-12.7c-1.4-6.2-0.8-12.2,2.8-17.6
		c3.7-5.6,9-8.3,15.5-8.9c4.6-0.4,9,0.3,13,2.8c5.2,3.3,7.7,8.3,8.6,14.2C118.7,39.4,118.7,41.8,118.8,44.5z M90.3,36.3
		c5.5,0,11,0,16.5,0c-0.1-4.5-3-7.3-7.5-7.4C94.4,28.8,90.4,32,90.3,36.3z"/>
	<path class="st0" d="M225.9,35.9c0.2-3.5-1.8-5.7-5.3-6.2c-3.5-0.5-6.7,0.5-9.6,2.5c-0.6,0.4-1.2,0.8-1.9,1.3
		c-2.1-2.3-4.2-4.5-6.6-7.1c2.2-1.4,4.2-2.9,6.3-3.9c5.9-2.8,12.2-3.2,18.5-1.6c6.3,1.6,9.2,6.3,10.2,12.3c0.4,2.7,0.6,5.4,0.6,8.1
		c0.1,5.8,0,11.6,0,17.5c0,0.6,0,1.1,0,1.8c-3.9,0-7.8,0-11.7,0c0-1.3,0-2.6,0-4.2c-0.8,0.9-1.3,1.5-1.9,2c-5.4,5-16.9,4.1-21.4-1.7
		c-4.3-5.6-2.6-13.6,3.7-17.1c3.7-2,7.8-2.8,12-3.1C221.1,36.1,223.5,36,225.9,35.9z M226.2,43.5c-1.9,0-3.7-0.2-5.4,0.1
		c-2.2,0.4-4.3,1-6.3,1.8c-1.5,0.6-2,2.2-1.9,3.8c0.2,1.6,1.2,2.6,2.6,3.2C221.6,54.7,227.2,50.3,226.2,43.5z"/>
	<path class="st0" d="M438.8,48.1c2.4,2.9,4.7,5.7,7,8.6c-2.4,2.3-5.2,3.5-8.3,4.3c-6.1,1.5-12,1-17.6-1.9
		c-7.5-3.8-11.6-12.2-10.4-20.9c1.5-10.7,9.4-17.8,20.2-18.2c5.6-0.2,10.8,1,15.3,4.5c0.2,0.2,0.5,0.3,0.9,0.6c-2.6,3-5,5.8-7.5,8.7
		c-2.3-2.2-5-3.4-8.2-3c-2.3,0.3-4.1,1.4-5.5,3.2c-3.3,4.2-3.1,10.7,0.5,14.3C428.5,51.6,434.4,52.1,438.8,48.1z"/>
	<path class="st0" d="M179.6,21.4c4.3,0,8.4,0,12.6,0c0,13,0,26,0,39.1c-4.2,0-8.4,0-12.6,0C179.6,47.4,179.6,34.5,179.6,21.4z"/>
	<path class="st0" d="M394.4,61.3c-4.5,0-7.9-3.3-7.9-7.5c0-4.4,3.6-7.8,8.2-7.8c4.3,0,7.7,3.4,7.7,7.7
		C402.4,58.1,398.9,61.3,394.4,61.3z"/>
	<path class="st0" d="M185.8,15.7c-4.2,0-7.3-3.1-7.2-7.1c0-4,3.3-7,7.4-7c4.1,0,7.3,3.2,7.3,7.1C193.2,12.7,190,15.7,185.8,15.7z"
		/>
</g>
</svg>
